<svg width="1024" height="1024" viewBox="0 0 1024 1024" fill="none" xmlns="http://www.w3.org/2000/svg">
<g clip-path="url(#clip0_979_27659)">
<path d="M0 0H1024V1024H0V0Z" fill="black"/>
<path d="M465.674 168.888C468.39 164.295 472.911 158.136 475.923 153.217C479.627 147.168 485.142 137.063 489.256 131.997C491.169 129.627 493.486 127.614 496.1 126.051C502.969 121.89 511.216 120.645 519.007 122.593C531.747 125.848 536.086 135.299 541.992 145.614C544.823 150.558 547.926 155.54 550.812 160.492C557.738 169.327 563.97 179.533 570.991 188.643C607.484 235.992 652.622 275.311 694.954 317.196C782.782 404.293 864.12 507.561 848.915 638.829C844.14 674.83 832.347 709.545 814.205 741.005C811.33 746.053 795.903 770.65 792.464 773.093C789.931 777.139 783.311 784.748 780.087 788.409C757.517 813.783 731.281 835.641 702.249 853.257C618.1 903.784 511.281 914.91 416.81 891.231C351.487 875.452 292.307 840.664 246.749 791.262C238.898 782.773 224.599 766.022 218.65 756.106C216.642 754.51 208.107 740.41 206.746 737.584C195.209 721.751 179.05 677.88 176.119 658.538C174.311 653.137 172.916 641.335 172.216 635.363C159.583 529.868 219.554 433.347 288.715 359.267C338.917 305.495 394.433 256.577 441.667 199.926C450.151 189.751 457.472 179.052 465.674 168.888Z" fill="url(#paint0_linear_979_27659)"/>
<path d="M555.012 207.596C571.095 228.613 590.649 248.825 609.38 267.507C626.356 284.352 643.525 301.002 660.883 317.455C679.075 334.661 696.727 351.002 713.601 369.861C765.852 428.257 813.624 493.111 824.61 572.861C827.488 593.754 826.588 607.413 825.555 627.735C818.688 675.406 809.285 701.429 783.156 742.559L783.31 743.98C787.628 744.922 802.804 736.847 809.043 738.151C812.597 738.893 811.868 737.93 814.207 741.005C811.332 746.053 795.905 770.65 792.466 773.093C789.933 777.139 783.313 784.748 780.089 788.409C757.519 813.783 731.283 835.641 702.251 853.257C618.102 903.784 511.283 914.91 416.812 891.231C351.489 875.452 292.309 840.664 246.751 791.262C238.9 782.773 224.601 766.022 218.652 756.106C216.644 754.51 208.109 740.41 206.748 737.584C206.695 735.584 206.445 735.252 205.391 733.544L205.585 733.216C214.06 732.449 219.906 733.844 227.86 733.57C235.587 733.303 243.07 733.736 250.636 733.495C264.322 733.059 277.763 732.431 291.487 732.825C300.748 733.091 309.547 734.627 318.782 734.899C320.665 737.117 317.511 735.953 320.33 737.483C319.023 708.602 323.4 687.834 338.194 662.838C356.771 636.808 378.668 620.664 409.988 612.225C420.233 609.84 430.307 608.344 440.592 605.952C520.198 587.44 583.352 513.165 563.826 428.788C556.196 398.829 537.842 372.057 511.252 355.767C491.509 343.672 462.878 336.89 448.127 360.13C441.659 371.252 444.718 386.996 454.369 395.279C458.913 399.17 464.457 401.574 468.886 405.647C482.318 418.002 482.217 437.826 473.424 452.753C466.102 465.039 454.147 473.864 440.249 477.242C425.42 480.914 409.739 478.533 396.669 470.623C381.987 461.554 371.541 446.989 367.659 430.173C362.598 408.99 367.276 385.237 378.644 366.812C392.401 344.535 414.496 328.685 440.007 322.792C509.653 306.546 574.929 360.451 589.732 426.6C600.676 475.501 590.501 518.451 562.377 559.301C533.306 601.528 549.011 649.64 591.66 675.806C619.41 692.654 652.739 697.723 684.243 689.887C721.551 680.941 752.501 656.214 766.622 620.196C774.305 600.599 776.823 577.628 771.815 557.057C766.722 535.375 753.042 516.691 733.912 505.288C706.652 488.827 667.889 492.178 650.786 521.122C640.584 537.667 642.762 565.543 662.15 574.789C694.689 590.307 726.202 563.755 714.937 528.992C722.549 537.387 728.285 544.227 731.757 555.238C736.014 569.039 734.705 583.959 728.109 596.808C713.031 625.639 676.493 634.386 648.45 619.328C611.825 600.414 608.172 553.458 625.943 519.97C641.219 491.184 649.193 463.614 648.254 430.434C646.969 394.305 636.559 359.09 617.994 328.07C605.388 307.197 590.892 287.604 578.891 266.036C567.235 245.09 561.99 230.004 555.012 207.596Z" fill="black"/>
<path d="M206.748 737.585C206.695 735.585 206.445 735.253 205.391 733.545L205.585 733.217C214.06 732.45 219.906 733.845 227.86 733.571C235.587 733.304 243.07 733.737 250.636 733.496C264.322 733.06 277.763 732.432 291.487 732.826C300.748 733.092 309.547 734.628 318.782 734.9C320.665 737.118 317.511 735.954 320.33 737.484C320.777 743.792 321.629 750.065 322.883 756.263C325.866 766.178 327.62 773.468 331.919 783.265C344.421 811.756 370.774 836.974 397.983 851.717C460.286 885.476 544.907 884.564 611.363 864.922C655.1 851.995 702.657 827.189 736.641 796.539C741.806 791.881 747.199 786.64 752.097 781.647C756.353 777.307 760.863 771.499 765.177 767.386C771.628 758.219 776.535 752.786 783.156 742.56L783.31 743.981C787.628 744.923 802.804 736.848 809.043 738.152C812.597 738.894 811.868 737.931 814.207 741.006C811.332 746.054 795.905 770.651 792.466 773.094C789.933 777.14 783.313 784.749 780.089 788.41C757.519 813.784 731.283 835.642 702.251 853.258C618.102 903.785 511.283 914.911 416.812 891.232C351.489 875.453 292.309 840.665 246.751 791.263C238.9 782.774 224.601 766.023 218.652 756.107C216.644 754.511 208.109 740.411 206.748 737.585Z" fill="#6817C5"/>
<path d="M206.748 737.585C206.695 735.585 206.445 735.253 205.391 733.545L205.585 733.217C214.06 732.45 219.906 733.845 227.86 733.571C235.587 733.304 243.07 733.737 250.636 733.496C264.322 733.06 277.763 732.432 291.487 732.826C300.748 733.092 309.547 734.628 318.782 734.9C320.665 737.118 317.511 735.954 320.33 737.484C320.777 743.792 321.629 750.065 322.883 756.263C320.875 753.746 320.255 747.611 319.615 744.089C307.212 745.209 297.116 744.538 284.775 744.468L240.495 744.622C233.632 744.638 219.897 743.773 214.003 745.214L213.098 745.426L212.557 745.562C213.837 747.477 218.37 753.978 219.122 755.682L218.652 756.107C216.644 754.511 208.109 740.411 206.748 737.585Z" fill="#B52DC8"/>
<path d="M783.159 742.559L783.313 743.98C787.631 744.922 802.807 736.847 809.046 738.151C812.6 738.893 811.871 737.93 814.21 741.005C811.335 746.053 795.908 770.65 792.469 773.093L792.309 772.167C793.724 769.384 801.641 758.809 803.9 755.844C800.911 750.761 782.861 755.772 777.129 755.491C773.921 755.334 769.248 766.596 765.18 767.385C771.631 758.218 776.538 752.785 783.159 742.559Z" fill="#B52DC8"/>
<path d="M354.426 730.313C354.592 705.878 369.181 679.15 386.564 662.442C405.448 644.293 428.887 633.255 455.412 633.353C482.369 633.452 506.959 645.907 527.96 661.899C535.434 667.591 542.438 674.587 550.175 680.183C590.27 709.183 633.158 725.303 683.236 717.188C713.062 712.355 738.028 700.025 759.879 679.182C770.116 669.492 777.882 658.515 784.584 646.217C786.171 643.305 790.824 633.311 792.67 631.472C798.437 625.724 801.648 632.05 800.589 638.389C794.662 673.868 778.999 707.694 758.645 737.149C755.721 741.381 751.531 747.465 747.922 751.087C739.703 762.645 720.215 780.702 708.989 789.463C644.609 839.711 563.885 862.868 482.643 854.116C443.829 849.657 401.733 836.017 376.558 804.517C361.633 785.841 351.441 754.246 354.426 730.313Z" fill="url(#paint1_linear_979_27659)"/>
<path d="M465.68 168.888C468.396 164.295 472.917 158.136 475.929 153.217C479.633 147.168 485.148 137.063 489.262 131.997C491.175 129.627 493.492 127.614 496.106 126.051C502.975 121.89 511.222 120.645 519.013 122.593C531.753 125.848 536.092 135.299 541.998 145.614C544.829 150.558 547.932 155.54 550.818 160.492C548.847 159.321 547.325 156.819 545.946 154.951L545.35 155.085C544.83 156.675 544.257 158.247 543.631 159.799L542.931 160.136C540.113 159.062 531.862 162.201 529.308 161.737C516.965 159.495 504.496 159.065 492.085 161.044C488.228 161.658 480.004 166.571 476.659 163.558C474.109 164.672 471.081 167.435 469.728 167.111L469.018 166.033C467.751 167.19 467.233 168.141 465.68 168.888Z" fill="#FFE9A9"/>
</g>
<defs>
<linearGradient id="paint0_linear_979_27659" x1="502.2" y1="753.097" x2="535.772" y2="153.955" gradientUnits="userSpaceOnUse">
<stop stop-color="#E98C66"/>
<stop offset="1" stop-color="#FFFF6A"/>
</linearGradient>
<linearGradient id="paint1_linear_979_27659" x1="577.559" y1="628.275" x2="576.291" y2="855.889" gradientUnits="userSpaceOnUse">
<stop stop-color="#F3A16D"/>
<stop offset="1" stop-color="#4B19FF"/>
</linearGradient>
<clipPath id="clip0_979_27659">
<rect width="1024" height="1024" rx="500" fill="white"/>
</clipPath>
</defs>
</svg>
